<svg width="20" height="14" viewBox="0 0 20 14" fill="none" xmlns="http://www.w3.org/2000/svg">
<path d="M19.25 1.4486L6.75 1.4486C6.33579 1.4486 6 1.12432 6 0.7243C6 0.357615 6.28215 0.0545738 6.64823 0.00661352L6.75 7.48997e-07L19.25 1.84178e-06C19.6642 1.87799e-06 20 0.324282 20 0.724301C20 1.09099 19.7178 1.39403 19.3518 1.44199L19.25 1.4486L6.75 1.4486L19.25 1.4486ZM19.25 7.72586L0.749999 7.72586C0.335785 7.72586 -1.3305e-06 7.40158 -1.29553e-06 7.00156C-1.26347e-06 6.63488 0.282153 6.33184 0.648228 6.28388L0.749999 6.27726L19.25 6.27727C19.6642 6.27727 20 6.60155 20 7.00157C20 7.36825 19.7178 7.67129 19.3518 7.71925L19.25 7.72586L0.749999 7.72586L19.25 7.72586ZM19.25 14L3.75 14C3.33578 14 3 13.6757 3 13.2757C3 12.909 3.28215 12.606 3.64823 12.558L3.75 12.5514L19.25 12.5514C19.6642 12.5514 20 12.8757 20 13.2757C20 13.6424 19.7178 13.9454 19.3518 13.9934L19.25 14L3.75 14L19.25 14Z" fill="#232736"/>
</svg>
