<svg width="89" height="89" viewBox="0 0 89 89" fill="none" xmlns="http://www.w3.org/2000/svg">
<path d="M44.5 -1.94516e-06C69.0767 -3.01944e-06 89 19.9233 89 44.5C89 69.0767 69.0767 89 44.5 89C19.9233 89 -8.70876e-07 69.0767 -1.94516e-06 44.5C-3.01944e-06 19.9233 19.9233 -8.70876e-07 44.5 -1.94516e-06ZM44.5 81.613C64.9969 81.613 81.613 64.9969 81.613 44.5C81.613 24.0031 64.9969 7.387 44.5 7.387C24.0031 7.387 7.387 24.0031 7.387 44.5C7.387 64.9969 24.0031 81.613 44.5 81.613Z" fill="#F1F4F7"/>
<path d="M44.5 -1.94516e-06C54.3758 -2.37684e-06 63.971 3.28517 71.7744 9.3381C79.5778 15.391 85.1459 23.8678 87.6019 33.4333C90.058 42.9988 89.2622 53.1095 85.3401 62.1731C81.4179 71.2366 74.5922 78.7379 65.938 83.4956C57.2838 88.2533 47.2929 89.997 37.5387 88.4521C27.7845 86.9072 18.8213 82.1615 12.0609 74.9624C5.30047 67.7632 1.12689 58.5198 0.197492 48.6878C-0.731903 38.8559 1.6357 28.9941 6.9274 20.6557L13.1645 24.6139C8.75117 31.5681 6.77659 39.7928 7.55171 47.9926C8.32682 56.1925 11.8076 63.9015 17.4458 69.9056C23.084 75.9097 30.5593 79.8676 38.6943 81.1561C46.8292 82.4445 55.1617 80.9903 62.3793 77.0224C69.5969 73.0544 75.2896 66.7983 78.5606 59.2393C81.8317 51.6804 82.4953 43.248 80.447 35.2704C78.3987 27.2927 73.7548 20.2231 67.2468 15.175C60.7388 10.1268 52.7364 7.387 44.5 7.387L44.5 -1.94516e-06Z" fill="#0066FF"/>
</svg>
