<svg width="52" height="52" viewBox="0 0 52 52" fill="none" xmlns="http://www.w3.org/2000/svg">
<circle cx="26" cy="26" r="25.5" stroke="#0066FF"/>
<path d="M32.75 18C34.5449 18 36 19.4551 36 21.25V32.75C36 34.5449 34.5449 36 32.75 36H21.25C19.4551 36 18 34.5449 18 32.75V26.5019C18.4743 26.6996 18.9769 26.8428 19.5001 26.9236L19.5 32.75C19.5 32.9584 19.5364 33.1583 19.6033 33.3437L25.4258 27.643C26.2589 26.8273 27.5675 26.7885 28.4458 27.5266L28.5742 27.6431L34.3964 33.3447C34.4634 33.159 34.5 32.9588 34.5 32.75V21.25C34.5 20.2835 33.7165 19.5 32.75 19.5L26.9236 19.5001C26.8428 18.9769 26.6996 18.4743 26.5019 18H32.75ZM26.5588 28.644L26.4752 28.7148L20.6685 34.4011C20.8504 34.4651 21.0461 34.5 21.25 34.5H32.75C32.9535 34.5 33.1489 34.4653 33.3305 34.4014L27.5247 28.7148C27.2596 28.4553 26.8501 28.4316 26.5588 28.644ZM30.2521 21.5C31.4959 21.5 32.5042 22.5083 32.5042 23.7521C32.5042 24.9959 31.4959 26.0042 30.2521 26.0042C29.0083 26.0042 28 24.9959 28 23.7521C28 22.5083 29.0083 21.5 30.2521 21.5ZM20.5 15C23.5376 15 26 17.4624 26 20.5C26 23.5376 23.5376 26 20.5 26C17.4624 26 15 23.5376 15 20.5C15 17.4624 17.4624 15 20.5 15ZM30.2521 23C29.8367 23 29.5 23.3367 29.5 23.7521C29.5 24.1675 29.8367 24.5042 30.2521 24.5042C30.6675 24.5042 31.0042 24.1675 31.0042 23.7521C31.0042 23.3367 30.6675 23 30.2521 23ZM20.5 16.9992L20.4101 17.0073C20.206 17.0443 20.0451 17.2053 20.0081 17.4094L20 17.4992L19.9997 19.9992L17.4976 20L17.4078 20.0081C17.2037 20.0451 17.0427 20.206 17.0057 20.4101L16.9976 20.5L17.0057 20.5899C17.0427 20.794 17.2037 20.9549 17.4078 20.9919L17.4976 21L20.0006 20.9992L20.0011 23.5035L20.0092 23.5934C20.0462 23.7975 20.2071 23.9584 20.4112 23.9954L20.5011 24.0035L20.591 23.9954C20.7951 23.9584 20.956 23.7975 20.9931 23.5934L21.0011 23.5035L21.0006 20.9992L23.5046 21L23.5944 20.9919C23.7985 20.9549 23.9595 20.794 23.9965 20.5899L24.0046 20.5L23.9965 20.4101C23.9595 20.206 23.7985 20.0451 23.5944 20.0081L23.5046 20L20.9997 19.9992L21 17.4992L20.9919 17.4094C20.9549 17.2053 20.794 17.0443 20.5899 17.0073L20.5 16.9992Z" fill="#0066FF"/>
</svg>
