<svg width="36" height="36" viewBox="0 0 36 36" fill="none" xmlns="http://www.w3.org/2000/svg">
<mask id="mask0" style="mask-type:alpha" maskUnits="userSpaceOnUse" x="0" y="0" width="36" height="36">
<rect width="36" height="36" fill="#C4C4C4"/>
</mask>
<g mask="url(#mask0)">
<circle cx="18" cy="18" r="18" fill="#0066FF"/>
<path d="M27.2435 17.7212C27.2435 21.9715 23.3054 25.4171 18.4482 25.4171C17.577 25.4183 16.7095 25.3052 15.8678 25.0807C15.2258 25.4061 13.7515 26.0306 11.2712 26.4373C11.0513 26.4725 10.8842 26.2438 10.971 26.0394C11.3602 25.1202 11.712 23.8955 11.8176 22.7785C10.4708 21.4262 9.65283 19.6561 9.65283 17.7212C9.65283 13.4708 13.5909 10.0253 18.4482 10.0253C23.3054 10.0253 27.2435 13.4708 27.2435 17.7212ZM15.1499 17.7212C15.1499 17.4296 15.0341 17.15 14.8279 16.9438C14.6217 16.7376 14.3421 16.6218 14.0505 16.6218C13.7589 16.6218 13.4793 16.7376 13.2731 16.9438C13.0669 17.15 12.9511 17.4296 12.9511 17.7212C12.9511 18.0128 13.0669 18.2924 13.2731 18.4986C13.4793 18.7048 13.7589 18.8206 14.0505 18.8206C14.3421 18.8206 14.6217 18.7048 14.8279 18.4986C15.0341 18.2924 15.1499 18.0128 15.1499 17.7212V17.7212ZM19.5476 17.7212C19.5476 17.4296 19.4317 17.15 19.2256 16.9438C19.0194 16.7376 18.7397 16.6218 18.4482 16.6218C18.1566 16.6218 17.8769 16.7376 17.6708 16.9438C17.4646 17.15 17.3487 17.4296 17.3487 17.7212C17.3487 18.0128 17.4646 18.2924 17.6708 18.4986C17.8769 18.7048 18.1566 18.8206 18.4482 18.8206C18.7397 18.8206 19.0194 18.7048 19.2256 18.4986C19.4317 18.2924 19.5476 18.0128 19.5476 17.7212V17.7212ZM22.8458 18.8206C23.1374 18.8206 23.417 18.7048 23.6232 18.4986C23.8294 18.2924 23.9452 18.0128 23.9452 17.7212C23.9452 17.4296 23.8294 17.15 23.6232 16.9438C23.417 16.7376 23.1374 16.6218 22.8458 16.6218C22.5542 16.6218 22.2746 16.7376 22.0684 16.9438C21.8622 17.15 21.7464 17.4296 21.7464 17.7212C21.7464 18.0128 21.8622 18.2924 22.0684 18.4986C22.2746 18.7048 22.5542 18.8206 22.8458 18.8206V18.8206Z" fill="white"/>
</g>
</svg>
