<svg width="85" height="85" viewBox="0 0 85 85" fill="none" xmlns="http://www.w3.org/2000/svg">
<path d="M51.3542 7.08325C57.7112 7.08325 62.8646 12.2366 62.8646 18.5937C62.8646 20.8765 62.2001 23.004 61.0539 24.7935L69.9479 24.7916C72.3929 24.7916 74.375 26.7737 74.375 29.2187V41.6145C74.375 43.7551 72.8557 45.5409 70.8366 45.9524L70.8333 66.4062C70.8333 72.544 66.0292 77.5597 59.9761 77.8984L59.3229 77.9166H25.6771C19.5393 77.9166 14.5235 73.1125 14.1849 67.0593L14.1667 66.4062L14.1668 45.9531C12.146 45.5429 10.625 43.7563 10.625 41.6145V29.2187C10.625 26.7737 12.6071 24.7916 15.0521 24.7916L23.9461 24.7935C22.7999 23.004 22.1354 20.8765 22.1354 18.5937C22.1354 12.2366 27.2888 7.08325 33.6458 7.08325C37.2071 7.08325 40.3907 8.7006 42.5021 11.2409C44.6093 8.7006 47.7929 7.08325 51.3542 7.08325ZM39.8438 46.038H19.4792V66.4062C19.4792 69.658 21.9835 72.325 25.1688 72.5835L25.6771 72.6041H39.8438V46.038ZM65.5208 46.038H45.1562V72.6041H59.3229C62.5748 72.6041 65.2417 70.0997 65.5003 66.9145L65.5208 66.4062V46.038ZM39.8438 30.1041H15.9375V40.7291L39.8438 40.7255V30.1041ZM69.0625 40.7291V30.1041H45.1562V40.7255L69.0625 40.7291ZM51.3542 12.3958C47.9312 12.3958 45.1562 15.1707 45.1562 18.5937V24.788H51.4392L51.8625 24.771C55.0477 24.5125 57.5521 21.8455 57.5521 18.5937C57.5521 15.1707 54.7772 12.3958 51.3542 12.3958ZM33.6458 12.3958C30.2228 12.3958 27.4479 15.1707 27.4479 18.5937C27.4479 21.8455 29.9523 24.5125 33.1375 24.771L33.5608 24.788H39.8438V18.5937L39.8232 18.0853C39.5646 14.9001 36.8977 12.3958 33.6458 12.3958Z" fill="#0066FF"/>
</svg>
