<svg width="161" height="40" viewBox="0 0 161 40" fill="none" xmlns="http://www.w3.org/2000/svg">
<circle cx="20" cy="20" r="20" fill="#0066FF"/>
<path d="M30 19.5873C30 24.2382 25.6907 28.0085 20.3757 28.0085C19.4225 28.0098 18.4732 27.886 17.5522 27.6404C16.8496 27.9965 15.2364 28.6798 12.5223 29.1249C12.2817 29.1634 12.0989 28.9132 12.1939 28.6894C12.6198 27.6837 13.0047 26.3435 13.1202 25.1212C11.6465 23.6415 10.7515 21.7046 10.7515 19.5873C10.7515 14.9363 15.0607 11.166 20.3757 11.166C25.6907 11.166 30 14.9363 30 19.5873ZM16.7666 19.5873C16.7666 19.2682 16.6399 18.9622 16.4143 18.7366C16.1887 18.511 15.8827 18.3842 15.5636 18.3842C15.2445 18.3842 14.9385 18.511 14.7129 18.7366C14.4873 18.9622 14.3606 19.2682 14.3606 19.5873C14.3606 19.9063 14.4873 20.2123 14.7129 20.4379C14.9385 20.6635 15.2445 20.7903 15.5636 20.7903C15.8827 20.7903 16.1887 20.6635 16.4143 20.4379C16.6399 20.2123 16.7666 19.9063 16.7666 19.5873ZM21.5788 19.5873C21.5788 19.2682 21.452 18.9622 21.2264 18.7366C21.0008 18.511 20.6948 18.3842 20.3757 18.3842C20.0567 18.3842 19.7507 18.511 19.5251 18.7366C19.2994 18.9622 19.1727 19.2682 19.1727 19.5873C19.1727 19.9063 19.2994 20.2123 19.5251 20.4379C19.7507 20.6635 20.0567 20.7903 20.3757 20.7903C20.6948 20.7903 21.0008 20.6635 21.2264 20.4379C21.452 20.2123 21.5788 19.9063 21.5788 19.5873ZM25.1879 20.7903C25.5069 20.7903 25.8129 20.6635 26.0385 20.4379C26.2642 20.2123 26.3909 19.9063 26.3909 19.5873C26.3909 19.2682 26.2642 18.9622 26.0385 18.7366C25.8129 18.511 25.5069 18.3842 25.1879 18.3842C24.8688 18.3842 24.5628 18.511 24.3372 18.7366C24.1116 18.9622 23.9848 19.2682 23.9848 19.5873C23.9848 19.9063 24.1116 20.2123 24.3372 20.4379C24.5628 20.6635 24.8688 20.7903 25.1879 20.7903Z" fill="white"/>
<path d="M50.2058 19.1506H52.4069V13.9889H57.4558V12.1438H52.4069V8.84513H57.9898V7H50.2058V19.1506Z" fill="#232736"/>
<path d="M63.5997 19.3286C65.7237 19.3286 67.1832 18.2903 67.5629 16.7062L65.5576 16.4808C65.2669 17.252 64.5549 17.6555 63.6294 17.6555C62.2411 17.6555 61.3215 16.7418 61.3037 15.1815H67.6519V14.5229C67.6519 11.3251 65.7296 9.91898 63.487 9.91898C60.8765 9.91898 59.1738 11.8353 59.1738 14.6475C59.1738 17.5072 60.8528 19.3286 63.5997 19.3286ZM61.3096 13.7338C61.3749 12.571 62.2352 11.5921 63.5167 11.5921C64.7507 11.5921 65.5813 12.4939 65.5932 13.7338H61.3096Z" fill="#232736"/>
<path d="M73.8374 19.3286C75.9613 19.3286 77.4208 18.2903 77.8005 16.7062L75.7952 16.4808C75.5045 17.252 74.7925 17.6555 73.867 17.6555C72.4787 17.6555 71.5591 16.7418 71.5413 15.1815H77.8895V14.5229C77.8895 11.3251 75.9673 9.91898 73.7246 9.91898C71.1142 9.91898 69.4114 11.8353 69.4114 14.6475C69.4114 17.5072 71.0904 19.3286 73.8374 19.3286ZM71.5473 13.7338C71.6125 12.571 72.4728 11.5921 73.7543 11.5921C74.9883 11.5921 75.8189 12.4939 75.8308 13.7338H71.5473Z" fill="#232736"/>
<path d="M83.4224 19.3108C84.9886 19.3108 85.6946 18.3793 86.0328 17.7148H86.1633V19.1506H88.2755V7H86.1218V11.5446H86.0328C85.7065 10.886 85.0361 9.91898 83.4283 9.91898C81.3221 9.91898 79.6668 11.5683 79.6668 14.606C79.6668 17.608 81.2746 19.3108 83.4224 19.3108ZM84.0216 17.5487C82.6036 17.5487 81.8561 16.3028 81.8561 14.5941C81.8561 12.8973 82.5917 11.6811 84.0216 11.6811C85.4039 11.6811 86.1633 12.8261 86.1633 14.5941C86.1633 16.3621 85.3921 17.5487 84.0216 17.5487Z" fill="#232736"/>
<path d="M90.9931 19.1506H93.1053V17.7148H93.2298C93.568 18.3793 94.274 19.3108 95.8403 19.3108C97.988 19.3108 99.5958 17.608 99.5958 14.606C99.5958 11.5683 97.9406 9.91898 95.8344 9.91898C94.2266 9.91898 93.5561 10.886 93.2298 11.5446H93.1408V7H90.9931V19.1506ZM93.0993 14.5941C93.0993 12.8261 93.8587 11.6811 95.2411 11.6811C96.6709 11.6811 97.4066 12.8973 97.4066 14.5941C97.4066 16.3028 96.659 17.5487 95.2411 17.5487C93.8706 17.5487 93.0993 16.3621 93.0993 14.5941Z" fill="#232736"/>
<path d="M104.378 19.3345C105.808 19.3345 106.662 18.6641 107.054 17.8987H107.125V19.1506H109.19V13.0515C109.19 10.6428 107.226 9.91898 105.488 9.91898C103.571 9.91898 102.1 10.7733 101.625 12.4345L103.631 12.7193C103.844 12.0964 104.449 11.5624 105.499 11.5624C106.496 11.5624 107.042 12.0726 107.042 12.9685V13.0041C107.042 13.6211 106.395 13.6508 104.788 13.8228C103.02 14.0127 101.329 14.5407 101.329 16.5935C101.329 18.3852 102.64 19.3345 104.378 19.3345ZM104.936 17.7563C104.04 17.7563 103.399 17.347 103.399 16.5579C103.399 15.7332 104.117 15.3891 105.078 15.2527C105.642 15.1755 106.769 15.0331 107.048 14.8077V15.8815C107.048 16.8961 106.229 17.7563 104.936 17.7563Z" fill="#232736"/>
<path d="M115.658 19.3286C117.949 19.3286 119.408 17.9699 119.562 16.0358H117.51C117.326 17.0147 116.62 17.5783 115.676 17.5783C114.335 17.5783 113.469 16.457 113.469 14.5941C113.469 12.7549 114.353 11.6514 115.676 11.6514C116.709 11.6514 117.343 12.3159 117.51 13.1939H119.562C119.414 11.2183 117.871 9.91898 115.647 9.91898C112.977 9.91898 111.292 11.8472 111.292 14.6297C111.292 17.3885 112.935 19.3286 115.658 19.3286Z" fill="#232736"/>
<path d="M121.66 19.1506H123.808V16.0892L124.591 15.2527L127.379 19.1506H129.948L126.211 13.9711L129.741 10.0376H127.231L123.956 13.6982H123.808V7H121.66V19.1506Z" fill="#232736"/>
<path d="M56.0591 27.6684C55.8162 26.3261 54.7423 25.5334 53.4256 25.5334C51.7509 25.5334 50.5364 26.8246 50.5364 28.8957C50.5364 30.9667 51.7509 32.2579 53.4256 32.2579C54.7423 32.2579 55.8162 31.4653 56.0591 30.1229H55.2665C55.0747 31.0306 54.2949 31.5164 53.4256 31.5164C52.2367 31.5164 51.3034 30.5959 51.3034 28.8957C51.3034 27.1954 52.2367 26.2749 53.4256 26.2749C54.2949 26.2749 55.0747 26.7607 55.2665 27.6684H56.0591Z" fill="#707484"/>
<path d="M59.2959 32.2707C60.293 32.2707 61.0217 31.7721 61.2518 31.0306L60.5231 30.8261C60.3314 31.3374 59.8871 31.5931 59.2959 31.5931C58.4106 31.5931 57.8001 31.021 57.765 29.9695H61.3285V29.6499C61.3285 27.8218 60.2419 27.1954 59.2192 27.1954C57.8896 27.1954 57.0075 28.2437 57.0075 29.7522C57.0075 31.2607 57.8768 32.2707 59.2959 32.2707ZM57.765 29.3175C57.8161 28.5537 58.3562 27.8729 59.2192 27.8729C60.0374 27.8729 60.5615 28.4866 60.5615 29.3175H57.765Z" fill="#707484"/>
<path d="M62.4759 34.0093H63.2302V31.4141H63.2941C63.4603 31.6826 63.7799 32.2707 64.7259 32.2707C65.9532 32.2707 66.8097 31.2863 66.8097 29.7266C66.8097 28.1798 65.9532 27.1954 64.7131 27.1954C63.7543 27.1954 63.4603 27.7834 63.2941 28.0391H63.2046V27.2593H62.4759V34.0093ZM63.2174 29.7138C63.2174 28.6144 63.7032 27.8729 64.6236 27.8729C65.5825 27.8729 66.0555 28.6783 66.0555 29.7138C66.0555 30.7621 65.5697 31.5931 64.6236 31.5931C63.716 31.5931 63.2174 30.8261 63.2174 29.7138Z" fill="#707484"/>
<path d="M67.9603 32.1684H70.2742C71.2714 32.1684 71.8722 31.6059 71.8722 30.8516C71.8722 30.0814 71.2874 29.6659 70.7472 29.586C71.3001 29.4709 71.6932 29.1609 71.6932 28.5633C71.6932 27.7803 71.0221 27.2593 69.9674 27.2593H67.9603V32.1684ZM68.6762 31.478V29.9695H70.2742C70.792 29.9695 71.1052 30.2795 71.1052 30.7877C71.1052 31.216 70.792 31.478 70.2742 31.478H68.6762ZM68.6762 29.3175V27.9496H69.9674C70.5714 27.9496 70.939 28.2021 70.939 28.6144C70.939 29.0523 70.5714 29.3175 69.9674 29.3175H68.6762Z" fill="#707484"/>
<path d="M73.7683 31.0562V27.2593H73.014V32.1684H73.8961L76.2484 28.3715V32.1684H77.0026V27.2593H76.1333L73.7683 31.0562Z" fill="#707484"/>
<path d="M80.3784 32.2707C81.4651 32.2707 82.181 31.6059 82.3088 30.7366H81.5546C81.414 31.2735 80.9665 31.5931 80.3784 31.5931C79.4836 31.5931 78.9083 30.8516 78.9083 29.7138C78.9083 28.6016 79.4963 27.8729 80.3784 27.8729C81.0432 27.8729 81.4395 28.282 81.5546 28.7295H82.3088C82.181 27.809 81.4012 27.1954 80.3657 27.1954C79.0361 27.1954 78.154 28.2437 78.154 29.7394C78.154 31.2096 78.9978 32.2707 80.3784 32.2707Z" fill="#707484"/>
<path d="M89.7268 27.2593H88.9725V29.749C88.6082 29.8545 88.2343 29.9184 87.7836 29.9184C87.17 29.9184 86.697 29.5732 86.697 28.819V27.2465H85.9427V28.819C85.9427 30.0207 86.6714 30.6215 87.7836 30.6215C88.2471 30.6215 88.6178 30.5608 88.9725 30.4553V32.1684H89.7268V27.2593Z" fill="#707484"/>
<path d="M93.1689 32.2707C94.1661 32.2707 94.8948 31.7721 95.1249 31.0306L94.3962 30.8261C94.2044 31.3374 93.7602 31.5931 93.1689 31.5931C92.2836 31.5931 91.6732 31.021 91.638 29.9695H95.2016V29.6499C95.2016 27.8218 94.1149 27.1954 93.0922 27.1954C91.7627 27.1954 90.8806 28.2437 90.8806 29.7522C90.8806 31.2607 91.7499 32.2707 93.1689 32.2707ZM91.638 29.3175C91.6892 28.5537 92.2293 27.8729 93.0922 27.8729C93.9104 27.8729 94.4345 28.4866 94.4345 29.3175H91.638Z" fill="#707484"/>
<path d="M98.3433 32.2707C99.4299 32.2707 100.146 31.6059 100.274 30.7366H99.5194C99.3788 31.2735 98.9314 31.5931 98.3433 31.5931C97.4484 31.5931 96.8731 30.8516 96.8731 29.7138C96.8731 28.6016 97.4612 27.8729 98.3433 27.8729C99.0081 27.8729 99.4044 28.282 99.5194 28.7295H100.274C100.146 27.809 99.366 27.1954 98.3305 27.1954C97.001 27.1954 96.1189 28.2437 96.1189 29.7394C96.1189 31.2096 96.9626 32.2707 98.3433 32.2707Z" fill="#707484"/>
<path d="M100.99 27.9624H102.613V32.1684H103.367V27.9624H104.978V27.2593H100.99V27.9624Z" fill="#707484"/>
<path d="M106.833 27.2593H106.078V32.1684H106.833V30.0718H109.185V32.1684H109.939V27.2593H109.185V29.3687H106.833V27.2593Z" fill="#707484"/>
<path d="M112.071 29.0363V27.2593H111.317V32.1684H113.375C114.526 32.1684 115.152 31.4653 115.152 30.5832C115.152 29.6883 114.526 29.0363 113.375 29.0363H112.071ZM115.932 32.1684H116.686V27.2593H115.932V32.1684ZM112.071 29.7394H113.375C113.973 29.7394 114.398 30.1038 114.398 30.6215C114.398 31.1169 113.973 31.4653 113.375 31.4653H112.071V29.7394Z" fill="#707484"/>
<path d="M118.629 27.2593H117.76L119.32 29.7138L117.76 32.1684H118.629L119.805 30.2636L120.982 32.1684H121.851L120.266 29.7138L121.851 27.2593H120.982L119.805 29.2664L118.629 27.2593Z" fill="#707484"/>
<path d="M127.453 32.2707C128.782 32.2707 129.677 31.2607 129.677 29.7394C129.677 28.2053 128.782 27.1954 127.453 27.1954C126.123 27.1954 125.228 28.2053 125.228 29.7394C125.228 31.2607 126.123 32.2707 127.453 32.2707ZM127.453 31.5931C126.443 31.5931 125.982 30.7238 125.982 29.7394C125.982 28.755 126.443 27.8729 127.453 27.8729C128.463 27.8729 128.923 28.755 128.923 29.7394C128.923 30.7238 128.463 31.5931 127.453 31.5931Z" fill="#707484"/>
<path d="M130.187 27.9624H131.81V32.1684H132.565V27.9624H134.175V27.2593H130.187V27.9624Z" fill="#707484"/>
<path d="M134.969 30.9155C134.994 31.7209 135.765 32.2707 136.81 32.2707C137.884 32.2707 138.664 31.6954 138.664 30.8005C138.664 30.1869 138.296 29.6883 137.743 29.6499V29.5988C138.21 29.455 138.561 29.1162 138.561 28.5633C138.561 27.7866 137.896 27.1954 136.861 27.1954C135.838 27.1954 135.11 27.7579 135.084 28.5505H135.877C135.899 28.1446 136.324 27.8602 136.899 27.8602C137.471 27.8602 137.794 28.151 137.794 28.5888C137.794 28.9979 137.513 29.3048 136.912 29.3048H136.068V29.9823H136.912C137.513 29.9823 137.896 30.3115 137.896 30.8005C137.896 31.3598 137.401 31.5931 136.797 31.5931C136.206 31.5931 135.809 31.3598 135.774 30.9155H134.969Z" fill="#707484"/>
<path d="M140.477 29.0363V27.2593H139.723V32.1684H141.781C142.932 32.1684 143.558 31.4653 143.558 30.5832C143.558 29.6883 142.932 29.0363 141.781 29.0363H140.477ZM144.338 32.1684H145.092V27.2593H144.338V32.1684ZM140.477 29.7394H141.781C142.379 29.7394 142.804 30.1038 142.804 30.6215C142.804 31.1169 142.379 31.4653 141.781 31.4653H140.477V29.7394Z" fill="#707484"/>
<path d="M146.473 32.1684H148.787C149.784 32.1684 150.385 31.6059 150.385 30.8516C150.385 30.0814 149.8 29.6659 149.26 29.586C149.813 29.4709 150.206 29.1609 150.206 28.5633C150.206 27.7803 149.535 27.2593 148.48 27.2593H146.473V32.1684ZM147.189 31.478V29.9695H148.787C149.305 29.9695 149.618 30.2795 149.618 30.7877C149.618 31.216 149.305 31.478 148.787 31.478H147.189ZM147.189 29.3175V27.9496H148.48C149.084 27.9496 149.452 28.2021 149.452 28.6144C149.452 29.0523 149.084 29.3175 148.48 29.3175H147.189Z" fill="#707484"/>
<path d="M153.521 32.2707C154.851 32.2707 155.745 31.2607 155.745 29.7394C155.745 28.2053 154.851 27.1954 153.521 27.1954C152.191 27.1954 151.297 28.2053 151.297 29.7394C151.297 31.2607 152.191 32.2707 153.521 32.2707ZM153.521 31.5931C152.511 31.5931 152.051 30.7238 152.051 29.7394C152.051 28.755 152.511 27.8729 153.521 27.8729C154.531 27.8729 154.991 28.755 154.991 29.7394C154.991 30.7238 154.531 31.5931 153.521 31.5931Z" fill="#707484"/>
<path d="M156.897 32.1684H159.211C160.208 32.1684 160.809 31.6059 160.809 30.8516C160.809 30.0814 160.224 29.6659 159.684 29.586C160.237 29.4709 160.63 29.1609 160.63 28.5633C160.63 27.7803 159.959 27.2593 158.904 27.2593H156.897V32.1684ZM157.613 31.478V29.9695H159.211C159.728 29.9695 160.042 30.2795 160.042 30.7877C160.042 31.216 159.728 31.478 159.211 31.478H157.613ZM157.613 29.3175V27.9496H158.904C159.508 27.9496 159.876 28.2021 159.876 28.6144C159.876 29.0523 159.508 29.3175 158.904 29.3175H157.613Z" fill="#707484"/>
</svg>
