<svg width="131" height="36" viewBox="0 0 131 36" fill="none" xmlns="http://www.w3.org/2000/svg">
<path d="M45.076 19H47.0522V14.3658H51.5852V12.7092H47.0522V9.74751H52.0646V8.09091H45.076V19ZM57.1014 19.1598C59.0084 19.1598 60.3187 18.2276 60.6596 16.8054L58.8592 16.603C58.5982 17.2955 57.959 17.6577 57.128 17.6577C55.8816 17.6577 55.0559 16.8374 55.04 15.4364H60.7395V14.8452C60.7395 11.9741 59.0137 10.7116 57.0002 10.7116C54.6564 10.7116 53.1277 12.4322 53.1277 14.957C53.1277 17.5245 54.6351 19.1598 57.1014 19.1598ZM55.0453 14.1367C55.1039 13.0927 55.8763 12.2138 57.0268 12.2138C58.1348 12.2138 58.8805 13.0234 58.8912 14.1367H55.0453ZM66.293 19.1598C68.2 19.1598 69.5103 18.2276 69.8512 16.8054L68.0508 16.603C67.7898 17.2955 67.1506 17.6577 66.3196 17.6577C65.0732 17.6577 64.2476 16.8374 64.2316 15.4364H69.9311V14.8452C69.9311 11.9741 68.2053 10.7116 66.1918 10.7116C63.848 10.7116 62.3193 12.4322 62.3193 14.957C62.3193 17.5245 63.8267 19.1598 66.293 19.1598ZM64.2369 14.1367C64.2955 13.0927 65.0679 12.2138 66.2184 12.2138C67.3264 12.2138 68.0721 13.0234 68.0828 14.1367H64.2369ZM74.8987 19.1438C76.3049 19.1438 76.9388 18.3075 77.2424 17.7109H77.3596V19H79.2559V8.09091H77.3223V12.1712H77.2424C76.9494 11.5799 76.3475 10.7116 74.904 10.7116C73.013 10.7116 71.5269 12.1925 71.5269 14.9197C71.5269 17.6151 72.9704 19.1438 74.8987 19.1438ZM75.4367 17.5618C74.1636 17.5618 73.4924 16.4432 73.4924 14.9091C73.4924 13.3857 74.1529 12.2937 75.4367 12.2937C76.6778 12.2937 77.3596 13.3217 77.3596 14.9091C77.3596 16.4964 76.6671 17.5618 75.4367 17.5618ZM81.6959 19H83.5922V17.7109H83.7041C84.0077 18.3075 84.6416 19.1438 86.0478 19.1438C87.9761 19.1438 89.4196 17.6151 89.4196 14.9197C89.4196 12.1925 87.9335 10.7116 86.0425 10.7116C84.599 10.7116 83.9971 11.5799 83.7041 12.1712H83.6242V8.09091H81.6959V19ZM83.5869 14.9091C83.5869 13.3217 84.2687 12.2937 85.5098 12.2937C86.7936 12.2937 87.4541 13.3857 87.4541 14.9091C87.4541 16.4432 86.7829 17.5618 85.5098 17.5618C84.2794 17.5618 83.5869 16.4964 83.5869 14.9091ZM93.7133 19.1651C94.9971 19.1651 95.7641 18.5632 96.1157 17.8761H96.1796V19H98.0333V13.5241C98.0333 11.3615 96.2702 10.7116 94.7094 10.7116C92.9889 10.7116 91.6679 11.4787 91.2417 12.9702L93.0422 13.2259C93.2339 12.6665 93.7773 12.1871 94.7201 12.1871C95.615 12.1871 96.105 12.6452 96.105 13.4496V13.4815C96.105 14.0355 95.5244 14.0621 94.0809 14.2166C92.4935 14.3871 90.9754 14.8612 90.9754 16.7042C90.9754 18.3129 92.1526 19.1651 93.7133 19.1651ZM94.214 17.7482C93.4097 17.7482 92.8344 17.3807 92.8344 16.6722C92.8344 15.9318 93.479 15.6229 94.3419 15.5004C94.8479 15.4311 95.86 15.3033 96.1104 15.1009V16.065C96.1104 16.9759 95.3753 17.7482 94.214 17.7482ZM103.841 19.1598C105.897 19.1598 107.208 17.94 107.346 16.2035H105.503C105.338 17.0824 104.704 17.5884 103.857 17.5884C102.653 17.5884 101.876 16.5817 101.876 14.9091C101.876 13.2578 102.669 12.267 103.857 12.267C104.784 12.267 105.354 12.8636 105.503 13.652H107.346C107.213 11.8782 105.828 10.7116 103.83 10.7116C101.433 10.7116 99.9206 12.4428 99.9206 14.9411C99.9206 17.418 101.396 19.1598 103.841 19.1598ZM109.229 19H111.158V16.2514L111.861 15.5004L114.364 19H116.671L113.315 14.3498L116.484 10.8182H114.231L111.291 14.1048H111.158V8.09091H109.229V19Z" fill="white"/>
<path d="M48.7131 26.5C48.5241 25.456 47.6889 24.8395 46.6648 24.8395C45.3622 24.8395 44.4176 25.8438 44.4176 27.4545C44.4176 29.0653 45.3622 30.0696 46.6648 30.0696C47.6889 30.0696 48.5241 29.4531 48.7131 28.4091H48.0966C47.9474 29.1151 47.3409 29.4929 46.6648 29.4929C45.7401 29.4929 45.0142 28.777 45.0142 27.4545C45.0142 26.1321 45.7401 25.4162 46.6648 25.4162C47.3409 25.4162 47.9474 25.794 48.0966 26.5H48.7131ZM51.2306 30.0795C52.0061 30.0795 52.5729 29.6918 52.7519 29.1151L52.1851 28.956C52.036 29.3537 51.6904 29.5526 51.2306 29.5526C50.542 29.5526 50.0672 29.1076 50.0399 28.2898H52.8115V28.0412C52.8115 26.6193 51.9664 26.1321 51.1709 26.1321C50.1368 26.1321 49.4507 26.9474 49.4507 28.1207C49.4507 29.294 50.1269 30.0795 51.2306 30.0795ZM50.0399 27.7827C50.0796 27.1886 50.4997 26.6591 51.1709 26.6591C51.8073 26.6591 52.2149 27.1364 52.2149 27.7827H50.0399ZM53.7039 31.4318H54.2906V29.4134H54.3403C54.4695 29.6222 54.7181 30.0795 55.4539 30.0795C56.4085 30.0795 57.0747 29.3139 57.0747 28.1009C57.0747 26.8977 56.4085 26.1321 55.444 26.1321C54.6982 26.1321 54.4695 26.5895 54.3403 26.7884H54.2707V26.1818H53.7039V31.4318ZM54.2806 28.0909C54.2806 27.2358 54.6585 26.6591 55.3744 26.6591C56.1201 26.6591 56.488 27.2855 56.488 28.0909C56.488 28.9062 56.1102 29.5526 55.3744 29.5526C54.6684 29.5526 54.2806 28.956 54.2806 28.0909ZM57.9695 30H59.7693C60.5448 30 61.0122 29.5625 61.0122 28.9759C61.0122 28.3768 60.5573 28.0536 60.1372 27.9915C60.5672 27.902 60.873 27.6609 60.873 27.196C60.873 26.587 60.3509 26.1818 59.5306 26.1818H57.9695V30ZM58.5264 29.4631V28.2898H59.7693C60.172 28.2898 60.4156 28.5309 60.4156 28.9261C60.4156 29.2592 60.172 29.4631 59.7693 29.4631H58.5264ZM58.5264 27.7827V26.7188H59.5306C60.0004 26.7188 60.2863 26.9151 60.2863 27.2358C60.2863 27.5763 60.0004 27.7827 59.5306 27.7827H58.5264ZM62.4869 29.1349V26.1818H61.9002V30H62.5863L64.4158 27.0469V30H65.0025V26.1818H64.3263L62.4869 29.1349ZM67.6281 30.0795C68.4733 30.0795 69.0301 29.5625 69.1295 28.8864H68.5429C68.4335 29.304 68.0855 29.5526 67.6281 29.5526C66.9321 29.5526 66.4846 28.9759 66.4846 28.0909C66.4846 27.2259 66.942 26.6591 67.6281 26.6591C68.1452 26.6591 68.4534 26.9773 68.5429 27.3253H69.1295C69.0301 26.6094 68.4236 26.1321 67.6182 26.1321C66.5841 26.1321 65.898 26.9474 65.898 28.1108C65.898 29.2543 66.5542 30.0795 67.6281 30.0795ZM74.8991 26.1818H74.3124V28.1183C74.029 28.2003 73.7382 28.25 73.3877 28.25C72.9104 28.25 72.5425 27.9815 72.5425 27.3949V26.1719H71.9559V27.3949C71.9559 28.3295 72.5226 28.7969 73.3877 28.7969C73.7481 28.7969 74.0365 28.7496 74.3124 28.6676V30H74.8991V26.1818ZM77.5763 30.0795C78.3518 30.0795 78.9186 29.6918 79.0976 29.1151L78.5308 28.956C78.3817 29.3537 78.0361 29.5526 77.5763 29.5526C76.8877 29.5526 76.4129 29.1076 76.3856 28.2898H79.1572V28.0412C79.1572 26.6193 78.3121 26.1321 77.5166 26.1321C76.4825 26.1321 75.7964 26.9474 75.7964 28.1207C75.7964 29.294 76.4726 30.0795 77.5763 30.0795ZM76.3856 27.7827C76.4253 27.1886 76.8454 26.6591 77.5166 26.6591C78.153 26.6591 78.5606 27.1364 78.5606 27.7827H76.3856ZM81.6008 30.0795C82.4459 30.0795 83.0028 29.5625 83.1022 28.8864H82.5155C82.4062 29.304 82.0581 29.5526 81.6008 29.5526C80.9047 29.5526 80.4573 28.9759 80.4573 28.0909C80.4573 27.2259 80.9147 26.6591 81.6008 26.6591C82.1178 26.6591 82.426 26.9773 82.5155 27.3253H83.1022C83.0028 26.6094 82.3962 26.1321 81.5908 26.1321C80.5567 26.1321 79.8706 26.9474 79.8706 28.1108C79.8706 29.2543 80.5269 30.0795 81.6008 30.0795ZM83.659 26.7287H84.9218V30H85.5084V26.7287H86.7613V26.1818H83.659V26.7287ZM88.2037 26.1818H87.617V30H88.2037V28.3693H90.0332V30H90.6199V26.1818H90.0332V27.8224H88.2037V26.1818ZM92.2779 27.5639V26.1818H91.6912V30H93.2921C94.187 30 94.6742 29.4531 94.6742 28.767C94.6742 28.071 94.187 27.5639 93.2921 27.5639H92.2779ZM95.2807 30H95.8674V26.1818H95.2807V30ZM92.2779 28.1108H93.2921C93.7569 28.1108 94.0875 28.3942 94.0875 28.7969C94.0875 29.1822 93.7569 29.4531 93.2921 29.4531H92.2779V28.1108ZM97.3787 26.1818H96.7026L97.9157 28.0909L96.7026 30H97.3787L98.2935 28.5185L99.2083 30H99.8844L98.6515 28.0909L99.8844 26.1818H99.2083L98.2935 27.7429L97.3787 26.1818ZM104.241 30.0795C105.275 30.0795 105.972 29.294 105.972 28.1108C105.972 26.9176 105.275 26.1321 104.241 26.1321C103.207 26.1321 102.511 26.9176 102.511 28.1108C102.511 29.294 103.207 30.0795 104.241 30.0795ZM104.241 29.5526C103.456 29.5526 103.098 28.8764 103.098 28.1108C103.098 27.3452 103.456 26.6591 104.241 26.6591C105.027 26.6591 105.385 27.3452 105.385 28.1108C105.385 28.8764 105.027 29.5526 104.241 29.5526ZM106.368 26.7287H107.631V30H108.217V26.7287H109.47V26.1818H106.368V26.7287ZM110.087 29.0256C110.107 29.652 110.706 30.0795 111.519 30.0795C112.354 30.0795 112.961 29.6321 112.961 28.9361C112.961 28.4588 112.675 28.071 112.245 28.0412V28.0014C112.608 27.8896 112.881 27.6261 112.881 27.196C112.881 26.592 112.364 26.1321 111.559 26.1321C110.763 26.1321 110.197 26.5696 110.177 27.1861H110.793C110.811 26.8704 111.141 26.6491 111.589 26.6491C112.034 26.6491 112.285 26.8754 112.285 27.2159C112.285 27.5341 112.066 27.7727 111.599 27.7727H110.942V28.2997H111.599C112.066 28.2997 112.364 28.5558 112.364 28.9361C112.364 29.3711 111.979 29.5526 111.509 29.5526C111.049 29.5526 110.741 29.3711 110.714 29.0256H110.087ZM114.372 27.5639V26.1818H113.785V30H115.386C116.281 30 116.768 29.4531 116.768 28.767C116.768 28.071 116.281 27.5639 115.386 27.5639H114.372ZM117.374 30H117.961V26.1818H117.374V30ZM114.372 28.1108H115.386C115.851 28.1108 116.181 28.3942 116.181 28.7969C116.181 29.1822 115.851 29.4531 115.386 29.4531H114.372V28.1108ZM119.035 30H120.835C121.61 30 122.078 29.5625 122.078 28.9759C122.078 28.3768 121.623 28.0536 121.203 27.9915C121.633 27.902 121.938 27.6609 121.938 27.196C121.938 26.587 121.416 26.1818 120.596 26.1818H119.035V30ZM119.592 29.4631V28.2898H120.835C121.237 28.2898 121.481 28.5309 121.481 28.9261C121.481 29.2592 121.237 29.4631 120.835 29.4631H119.592ZM119.592 27.7827V26.7188H120.596C121.066 26.7188 121.352 26.9151 121.352 27.2358C121.352 27.5763 121.066 27.7827 120.596 27.7827H119.592ZM124.517 30.0795C125.551 30.0795 126.247 29.294 126.247 28.1108C126.247 26.9176 125.551 26.1321 124.517 26.1321C123.483 26.1321 122.787 26.9176 122.787 28.1108C122.787 29.294 123.483 30.0795 124.517 30.0795ZM124.517 29.5526C123.731 29.5526 123.373 28.8764 123.373 28.1108C123.373 27.3452 123.731 26.6591 124.517 26.6591C125.302 26.6591 125.66 27.3452 125.66 28.1108C125.66 28.8764 125.302 29.5526 124.517 29.5526ZM127.142 30H128.942C129.718 30 130.185 29.5625 130.185 28.9759C130.185 28.3768 129.73 28.0536 129.31 27.9915C129.74 27.902 130.046 27.6609 130.046 27.196C130.046 26.587 129.524 26.1818 128.703 26.1818H127.142V30ZM127.699 29.4631V28.2898H128.942C129.345 28.2898 129.588 28.5309 129.588 28.9261C129.588 29.2592 129.345 29.4631 128.942 29.4631H127.699ZM127.699 27.7827V26.7188H128.703C129.173 26.7188 129.459 26.9151 129.459 27.2358C129.459 27.5763 129.173 27.7827 128.703 27.7827H127.699Z" fill="white"/>
<circle cx="18" cy="18" r="18" fill="#0066FF"/>
<path d="M27.2435 17.7212C27.2435 21.9715 23.3054 25.4171 18.4482 25.4171C17.577 25.4183 16.7095 25.3052 15.8678 25.0807C15.2258 25.4061 13.7515 26.0306 11.2712 26.4373C11.0513 26.4725 10.8842 26.2438 10.971 26.0394C11.3602 25.1202 11.712 23.8955 11.8176 22.7785C10.4708 21.4262 9.65283 19.6561 9.65283 17.7212C9.65283 13.4708 13.5909 10.0253 18.4482 10.0253C23.3054 10.0253 27.2435 13.4708 27.2435 17.7212ZM15.1499 17.7212C15.1499 17.4296 15.0341 17.15 14.8279 16.9438C14.6217 16.7376 14.3421 16.6218 14.0505 16.6218C13.7589 16.6218 13.4793 16.7376 13.2731 16.9438C13.0669 17.15 12.9511 17.4296 12.9511 17.7212C12.9511 18.0128 13.0669 18.2924 13.2731 18.4986C13.4793 18.7048 13.7589 18.8206 14.0505 18.8206C14.3421 18.8206 14.6217 18.7048 14.8279 18.4986C15.0341 18.2924 15.1499 18.0128 15.1499 17.7212ZM19.5476 17.7212C19.5476 17.4296 19.4317 17.15 19.2256 16.9438C19.0194 16.7376 18.7397 16.6218 18.4482 16.6218C18.1566 16.6218 17.8769 16.7376 17.6708 16.9438C17.4646 17.15 17.3487 17.4296 17.3487 17.7212C17.3487 18.0128 17.4646 18.2924 17.6708 18.4986C17.8769 18.7048 18.1566 18.8206 18.4482 18.8206C18.7397 18.8206 19.0194 18.7048 19.2256 18.4986C19.4317 18.2924 19.5476 18.0128 19.5476 17.7212ZM22.8458 18.8206C23.1374 18.8206 23.417 18.7048 23.6232 18.4986C23.8294 18.2924 23.9452 18.0128 23.9452 17.7212C23.9452 17.4296 23.8294 17.15 23.6232 16.9438C23.417 16.7376 23.1374 16.6218 22.8458 16.6218C22.5542 16.6218 22.2746 16.7376 22.0684 16.9438C21.8622 17.15 21.7464 17.4296 21.7464 17.7212C21.7464 18.0128 21.8622 18.2924 22.0684 18.4986C22.2746 18.7048 22.5542 18.8206 22.8458 18.8206Z" fill="white"/>
</svg>
