<svg width="16" height="16" viewBox="0 0 16 16" fill="none" xmlns="http://www.w3.org/2000/svg">
<path d="M6.66666 1.66675C9.42808 1.66675 11.6667 3.90532 11.6667 6.66675C11.6667 7.80685 11.2851 8.85782 10.6426 9.69893L13.8047 12.862C14.0651 13.1224 14.0651 13.5445 13.8047 13.8048C13.5644 14.0451 13.1862 14.0636 12.9247 13.8603L12.8619 13.8048L9.69883 10.6427C8.85773 11.2852 7.80676 11.6667 6.66666 11.6667C3.90523 11.6667 1.66666 9.42817 1.66666 6.66675C1.66666 3.90532 3.90523 1.66675 6.66666 1.66675ZM6.66666 3.00008C4.64161 3.00008 2.99999 4.6417 2.99999 6.66675C2.99999 8.69179 4.64161 10.3334 6.66666 10.3334C8.6917 10.3334 10.3333 8.69179 10.3333 6.66675C10.3333 4.6417 8.6917 3.00008 6.66666 3.00008Z" fill="white"/>
</svg>
