<svg width="16" height="16" viewBox="0 0 16 16" fill="none" xmlns="http://www.w3.org/2000/svg">
<path d="M7.99998 1.33264C11.6824 1.33264 14.6677 4.31787 14.6677 8.00034C14.6677 11.6828 11.6824 14.668 7.99998 14.668C4.31751 14.668 1.33228 11.6828 1.33228 8.00034C1.33228 4.31787 4.31751 1.33264 7.99998 1.33264ZM7.99744 6.83303C7.65555 6.83325 7.37393 7.0908 7.33564 7.42238L7.33121 7.50013L7.33361 11.1679L7.33814 11.2456C7.37687 11.5771 7.65882 11.8343 8.00071 11.8341C8.3426 11.8339 8.62421 11.5763 8.66251 11.2447L8.66694 11.167L8.66454 7.49926L8.66 7.42152C8.62128 7.08998 8.33933 6.83281 7.99744 6.83303ZM8.00027 4.33333C7.53948 4.33333 7.16593 4.70688 7.16593 5.16768C7.16593 5.62847 7.53948 6.00202 8.00027 6.00202C8.46107 6.00202 8.83462 5.62847 8.83462 5.16768C8.83462 4.70688 8.46107 4.33333 8.00027 4.33333Z" fill="#8A949A"/>
</svg>
